<?xml version="1.0" encoding="UTF-8" standalone="no"?>
<!-- Created with Inkscape (http://www.inkscape.org/) -->

<svg
   xmlns:dc="http://purl.org/dc/elements/1.1/"
   xmlns:cc="http://creativecommons.org/ns#"
   xmlns:rdf="http://www.w3.org/1999/02/22-rdf-syntax-ns#"
   xmlns:svg="http://www.w3.org/2000/svg"
   xmlns="http://www.w3.org/2000/svg"
   xmlns:sodipodi="http://sodipodi.sourceforge.net/DTD/sodipodi-0.dtd"
   xmlns:inkscape="http://www.inkscape.org/namespaces/inkscape"
   width="510.638"
   height="680.99237"
   id="svg3515"
   version="1.1"
   inkscape:version="0.48.4 r9939"
   sodipodi:docname="New document 4">
  <defs
     id="defs3517" />
  <sodipodi:namedview
     id="base"
     pagecolor="#ffffff"
     bordercolor="#666666"
     borderopacity="1.0"
     inkscape:pageopacity="0.0"
     inkscape:pageshadow="2"
     inkscape:zoom="0.73168879"
     inkscape:cx="267.76509"
     inkscape:cy="299.53334"
     inkscape:document-units="px"
     inkscape:current-layer="layer1"
     showgrid="false"
     fit-margin-top="0"
     fit-margin-left="0"
     fit-margin-right="0"
     fit-margin-bottom="0"
     inkscape:window-width="1680"
     inkscape:window-height="987"
     inkscape:window-x="-8"
     inkscape:window-y="-8"
     inkscape:window-maximized="1" />
  <metadata
     id="metadata3520">
    <rdf:RDF>
      <cc:Work
         rdf:about="">
        <dc:format>image/svg+xml</dc:format>
        <dc:type
           rdf:resource="http://purl.org/dc/dcmitype/StillImage" />
        <dc:title></dc:title>
      </cc:Work>
    </rdf:RDF>
  </metadata>
  <g
     inkscape:label="Layer 1"
     inkscape:groupmode="layer"
     id="layer1"
     transform="translate(-104.27992,-144.72313)">
    <path
       id="path2995"
       style="fill:#b3db18;fill-opacity:1;fill-rule:evenodd;stroke:none"
       d="m 274.42176,825.71552 0,-170.24848 170.24843,0 0,170.24848"
       inkscape:connector-curvature="0" />
    <path
       id="path2997"
       style="fill:#059e9a;fill-opacity:1;fill-rule:evenodd;stroke:none"
       d="m 274.42176,825.71552 170.24843,0 0,-34.05174 -68.10053,0 0,-102.1472 68.10053,0 0,-34.04954 -170.24843,0 0,170.24848 z m 34.04955,-34.05174 0,-102.1472 34.0488,0 0,102.1472"
       inkscape:connector-curvature="0" />
    <path
       id="path2999"
       style="fill:#712090;fill-opacity:1;fill-rule:evenodd;stroke:none"
       d="m 274.42176,655.46704 0,-170.24774 170.24843,0 0,170.24774"
       inkscape:connector-curvature="0" />
    <path
       id="path3001"
       style="fill:#f68712;fill-opacity:1;fill-rule:evenodd;stroke:none"
       d="m 274.42176,655.46704 170.24843,0 0,-34.0488 -129.7873,0 129.7873,-88.59339 0,-47.60555 -170.24843,0 0,34.04885 129.7873,0 -129.7873,88.48744"
       inkscape:connector-curvature="0" />
    <path
       id="path3003"
       style="fill:#2056ae;fill-opacity:1;fill-rule:evenodd;stroke:none"
       d="m 274.42176,485.2193 0,-170.24843 170.24843,0 0,170.24843"
       inkscape:connector-curvature="0" />
    <path
       id="path3005"
       style="fill:#a6e2f9;fill-opacity:1;fill-rule:evenodd;stroke:none"
       d="m 274.42176,485.2193 170.24843,0 0,-170.24843 -170.24843,0 0,170.24843 z m 34.04955,-34.04955 0,-102.14933 102.1472,0 0,102.14933"
       inkscape:connector-curvature="0" />
    <path
       id="path3007"
       style="fill:#f68712;fill-opacity:1;fill-rule:evenodd;stroke:none"
       d="m 274.63217,314.97087 0,-170.24774 170.24843,0 0,170.24774"
       inkscape:connector-curvature="0" />
    <path
       id="path3009"
       style="fill:#fbc707;fill-opacity:1;fill-rule:evenodd;stroke:none"
       d="m 104.27992,485.2193 0,-170.24843 170.35225,0 0,170.24843"
       inkscape:connector-curvature="0" />
    <path
       id="path3011"
       style="fill:#2056ae;fill-opacity:1;fill-rule:evenodd;stroke:none"
       d="m 104.27992,314.97087 0,102.15008 136.3027,0 0,68.09835 34.04955,0 0,-170.24843 -34.04955,0 0,68.10053 -102.14939,0 0,-68.10053"
       inkscape:connector-curvature="0" />
    <path
       id="path3013"
       style="fill:#712090;fill-opacity:1;fill-rule:evenodd;stroke:none"
       d="m 274.63217,314.97087 102.14789,0 0,-136.19675 34.04886,0 0,136.19675 34.05168,0 0,-170.24774 -102.15009,0 0,136.19888 -34.04879,0 0,-136.19888 -34.04955,0"
       inkscape:connector-curvature="0" />
    <path
       id="path3015"
       style="fill:#2056ae;fill-opacity:1;fill-rule:evenodd;stroke:none"
       d="m 444.67019,655.46704 0,-170.24774 170.24561,0 0,170.24774"
       inkscape:connector-curvature="0" />
    <path
       id="path3017"
       style="fill:#2056ae;fill-opacity:1;fill-rule:evenodd;stroke:none"
       d="m 535.42602,801.23363 c -3.1597,0 -7.89594,0.52688 -11.31937,1.05346 l 0.52687,3.42124 c 3.68497,-0.26286 7.63297,-0.52687 9.73915,-0.52687 3.68428,0 4.73843,1.05421 4.73843,3.68496 l 0,1.84251 -9.21169,0 c -4.21167,0 -6.58089,2.10549 -6.58089,5.79046 l 0,2.63294 c 0,4.21167 2.63295,6.31716 7.10546,6.31716 4.21173,0 7.37212,-2.10549 9.21388,-3.94794 l 0.52515,3.68496 3.68497,0 0,-16.32009 c 0,-5.79045 -2.89454,-7.63291 -8.42196,-7.63291 z m -7.63296,16.05631 c 0,-1.84246 0.78904,-2.89448 2.89453,-3.15752 l 8.4234,0 0,4.21173 c -2.63294,2.36702 -5.79046,3.42124 -7.8967,3.42124 -2.36921,0 -3.42123,-1.05422 -3.42123,-3.42124"
       inkscape:connector-curvature="0" />
    <path
       id="path3019"
       style="fill:#2056ae;fill-opacity:1;fill-rule:evenodd;stroke:none"
       d="m 562.00977,801.23363 c -3.42124,0 -6.84248,1.57873 -10.26585,4.21167 l -0.26113,-3.42124 -3.94869,0 0,23.16257 4.47326,0 0,-16.58382 c 3.68497,-2.10549 6.05418,-3.42124 8.68712,-3.42124 2.10549,0 2.89448,1.05422 2.89448,3.948 l 0,16.05706 4.73843,0 0,-17.37212 c 0,-4.21167 -2.36921,-6.58088 -6.3179,-6.58088"
       inkscape:connector-curvature="0" />
    <path
       id="path3021"
       style="fill:#2056ae;fill-opacity:1;fill-rule:evenodd;stroke:none"
       d="m 582.01483,801.23363 c -7.89669,0 -11.05421,3.42124 -11.05421,12.37134 0,8.94872 3.15752,12.10836 11.05421,12.10836 8.15967,0 11.31788,-3.15964 11.31788,-12.10836 0,-8.9501 -3.15821,-12.37134 -11.31788,-12.37134 z m 0,3.94794 c 5.00216,0 6.31716,1.84251 6.31716,8.4234 0,6.31791 -1.315,8.4234 -6.31716,8.4234 -4.73699,0 -6.05418,-2.10549 -6.05418,-8.4234 0,-6.58089 1.31719,-8.4234 6.05418,-8.4234"
       inkscape:connector-curvature="0" />
    <path
       id="path3023"
       style="fill:#2056ae;fill-opacity:1;fill-rule:evenodd;stroke:none"
       d="m 603.86159,801.23363 c -6.31716,0 -9.21169,1.315 -9.21169,6.58088 0,3.68497 1.57878,5.52748 5.52748,6.58095 l 6.31715,1.57872 c 2.10624,0.52515 3.68497,0.78905 3.68497,2.89454 0,2.36922 -1.57873,2.89667 -6.58089,2.89667 -3.15826,0 -5.7912,0 -8.16042,-0.26344 l -0.26343,3.42124 c 3.94869,0.79043 7.6351,0.79043 9.21457,0.79043 7.10552,0 10.26516,-1.05416 10.26516,-6.84461 0,-3.948 -1.84176,-5.52673 -5.52886,-6.31791 l -6.57875,-1.84176 c -2.10624,-0.52573 -3.42343,-0.78934 -3.42343,-2.89483 0,-2.63294 1.31719,-2.63294 5.52892,-2.63294 2.89448,0 6.05418,0.26344 8.94866,0.26344 l 0.26286,-3.42124 c -2.89592,-0.26344 -6.84392,-0.79043 -10.00212,-0.79043"
       inkscape:connector-curvature="0" />
    <path
       id="path3025"
       style="fill:#2056ae;fill-opacity:1;fill-rule:evenodd;stroke:none"
       d="m 569.3819,758.06606 -6.84467,0 0,-23.68927 -9.21239,0 -2.10549,8.94866 0,14.74061 -13.16258,0 c -1.57872,0 -2.63075,-0.79049 -1.84176,-2.63294 l 13.16183,-31.84895 -11.32007,0 -14.47538,34.21886 c -1.84252,4.4747 1.05202,8.94796 5.79114,8.94796 l 21.84682,0 0,12.10837 11.31788,0 0,-12.10837 0.26286,0 6.58163,-1.05202"
       inkscape:connector-curvature="0" />
    <path
       id="path3027"
       style="fill:#2056ae;fill-opacity:1;fill-rule:evenodd;stroke:none"
       d="m 593.59574,722.52996 c -15.79264,0 -21.32006,7.6351 -21.32006,28.69143 0,21.05921 5.52742,28.69218 21.32006,28.69218 15.79333,0 21.32006,-7.63297 21.32006,-28.69218 0,-21.05633 -5.52673,-28.69143 -21.32006,-28.69143 z m -0.26286,9.74134 c 7.37137,0 9.47686,3.94794 9.47686,18.95009 0,15.00503 -2.10549,18.95303 -9.47686,18.95303 -6.84248,0 -8.94866,-3.948 -8.94866,-18.95303 0,-15.00215 2.10618,-18.95009 8.94866,-18.95009"
       inkscape:connector-curvature="0" />
    <path
       id="path3029"
       style="fill:#2056ae;fill-opacity:1;fill-rule:evenodd;stroke:none"
       d="m 525.41375,350.65391 0,-34.79029 -5.05548,0 -8.62371,3.26992 0.59663,3.86655 8.3254,-2.37931 c -0.29861,0.89281 -0.29861,2.08099 -0.29861,2.9738 l 0,27.05933"
       inkscape:connector-curvature="0" />
    <path
       id="path3031"
       style="fill:#2056ae;fill-opacity:1;fill-rule:evenodd;stroke:none"
       d="m 536.11846,350.65391 c 3.27067,0.59449 6.24441,0.59449 7.73165,0.59449 9.81195,0 13.6785,-2.9738 13.6785,-18.43567 0,-13.67919 -1.48655,-17.84186 -11.59751,-17.84186 -8.3254,0 -11.29914,4.16267 -11.29914,12.19195 0,6.54272 2.08099,11.29914 9.51577,11.29914 3.56824,0 5.9461,-0.59375 8.62372,-3.26992 -0.2986,9.51433 -2.37931,11.59532 -8.92134,11.59532 -3.56893,0 -4.75716,0 -7.13716,0 l -0.59449,3.86655 z m 9.2182,-16.05631 c -4.75716,0 -5.94753,-2.67762 -5.94753,-7.43478 0,-5.05548 0.89205,-7.73097 6.54197,-7.73097 6.24441,0 6.84035,2.67549 6.84035,12.19195 -2.67762,2.08174 -4.75861,2.9738 -7.43479,2.9738"
       inkscape:connector-curvature="0" />
    <path
       id="path3033"
       style="fill:#2056ae;fill-opacity:1;fill-rule:evenodd;stroke:none"
       d="m 562.88022,315.86362 0.29802,4.16273 16.94912,0 c -0.59444,0.89275 -0.89275,1.78481 -1.18894,2.67542 l -9.51646,27.95214 5.05548,0 10.7047,-31.52037 c 0.59444,-2.08099 -0.29745,-3.26992 -2.3793,-3.26992"
       inkscape:connector-curvature="0" />
    <path
       id="path3035"
       style="fill:#2056ae;fill-opacity:1;fill-rule:evenodd;stroke:none"
       d="m 612.53863,315.86362 c -2.67618,-0.89275 -5.64992,-0.89275 -7.13647,-0.89275 -9.21815,0 -13.677,2.67762 -13.677,18.73467 0,13.67845 2.08099,17.54286 11.89363,17.54286 9.51433,0 11.29914,-4.75717 11.29914,-11.89363 0,-8.62372 -2.3793,-11.59752 -9.81189,-11.59752 -3.56899,0 -5.94829,0.89281 -8.3276,3.27211 0.29803,-10.11026 2.67762,-11.59751 8.62372,-11.59751 3.27211,0 4.46029,0 6.84034,0 l 0.2963,-3.56823 z m -8.91984,30.92374 c -6.24441,0 -6.84035,-2.67543 -6.84035,-11.89364 2.67762,-2.37711 4.46105,-2.97374 7.13647,-2.97374 4.75936,0 6.24586,2.08168 6.24586,7.43479 0,4.75716 -0.89206,7.43259 -6.54198,7.43259"
       inkscape:connector-curvature="0" />
    <path
       id="path3037"
       style="fill:#2056ae;fill-opacity:1;fill-rule:evenodd;stroke:none"
       d="m 512.33119,380.9839 c 4.16272,-0.59444 6.54059,-0.89275 9.81264,-0.89275 3.86442,0 6.24372,0.2986 6.24372,3.56823 0.2986,3.27281 -1.78487,6.54273 -6.24372,11.29989 l -9.81264,11.00302 c -0.59663,0.59444 -0.59663,1.18893 -0.59663,2.08099 l 0,3.27061 23.19571,0 0,-5.05547 -11.5982,0 c -1.78268,0 -3.86442,0 -5.64922,0.29802 l 9.81189,-10.70539 c 4.75936,-5.05479 5.94829,-8.32541 5.94829,-12.48813 0,-6.54198 -4.16273,-7.73091 -10.7047,-7.73091 -3.27068,0 -5.94829,0.2963 -10.70546,1.18893"
       inkscape:connector-curvature="0" />
    <path
       id="path3039"
       style="fill:#2056ae;fill-opacity:1;fill-rule:evenodd;stroke:none"
       d="m 552.77145,375.6323 c -9.21821,0 -12.19195,5.3516 -12.19195,18.13804 0,12.78639 2.97374,18.13805 12.19195,18.13805 9.21815,0 12.18976,-5.35166 12.18976,-18.13805 0,-12.78644 -2.97161,-18.13804 -12.18976,-18.13804 z m 0,4.45885 c 5.64991,0 7.43334,3.56823 7.43334,13.67919 0,10.11021 -1.78343,13.6792 -7.43334,13.6792 -5.64923,0 -7.43479,-3.56899 -7.43479,-13.6792 0,-10.11096 1.78556,-13.67919 7.43479,-13.67919"
       inkscape:connector-curvature="0" />
    <path
       id="path3041"
       style="fill:#2056ae;fill-opacity:1;fill-rule:evenodd;stroke:none"
       d="m 583.10144,411.31389 0,-35.08716 -5.05548,0 -8.92203,3.56824 0.59663,3.86441 8.3254,-2.67548 c 0,1.18893 0,2.08174 0,3.26992 l 0,27.06007"
       inkscape:connector-curvature="0" />
    <path
       id="path3043"
       style="fill:#2056ae;fill-opacity:1;fill-rule:evenodd;stroke:none"
       d="m 612.53863,376.52292 c -2.67618,-0.89062 -5.64992,-0.89062 -7.13647,-0.89062 -9.21815,0 -13.677,2.37786 -13.677,18.73248 0,13.38088 2.08099,17.54361 11.89363,17.54361 9.51433,0 11.29914,-5.05548 11.29914,-12.19051 0,-8.32684 -2.3793,-11.2992 -9.81189,-11.2992 -3.56899,0 -5.94829,0.5945 -8.3276,3.26992 0.29803,-10.11021 2.67762,-11.59745 8.62372,-11.59745 3.27211,0 4.46029,0 6.84034,0 l 0.2963,-3.56823 z m -8.91984,30.92662 c -6.24441,0 -6.84035,-2.67837 -6.84035,-12.19195 2.67762,-2.08174 4.46105,-2.97449 7.13647,-2.97449 4.75936,0 6.24586,2.08168 6.24586,7.43478 0,5.05329 -0.89206,7.73166 -6.54198,7.73166"
       inkscape:connector-curvature="0" />
    <path
       id="path3045"
       style="fill:#2056ae;fill-opacity:1;fill-rule:evenodd;stroke:none"
       d="m 129.08682,580.83242 -6.7834,0 0,19.08199 c -3.39316,1.90949 -5.51306,2.96947 -7.8455,2.96947 -2.54503,0 -3.39242,-0.84738 -3.39242,-3.81755 l 0,-18.23391 -6.78558,0 0,20.3545 c 0,4.87753 2.54503,7.42038 7.63297,7.42038 3.81755,0 7.42037,-1.48293 11.23792,-4.4509 l 0.42311,3.81536 5.51307,0"
       inkscape:connector-curvature="0" />
    <path
       id="path3047"
       style="fill:#2056ae;fill-opacity:1;fill-rule:evenodd;stroke:none"
       d="m 138.62922,580.83242 -5.72485,0 0,27.13934 6.78483,0 0,-18.87083 c 3.81536,-2.1199 6.14855,-3.39242 8.90543,-3.39242 2.12065,0 2.96803,0.84952 2.96803,3.81755 l 0,18.4457 6.78553,0 0,-20.35375 c 0,-4.87753 -2.75757,-7.63297 -7.63291,-7.63297 -3.81755,0 -7.84551,1.90736 -11.66306,4.87534"
       inkscape:connector-curvature="0" />
    <path
       id="path3049"
       style="fill:#2056ae;fill-opacity:1;fill-rule:evenodd;stroke:none"
       d="m 174.03706,579.98504 c -9.11589,0 -13.14597,3.60282 -13.14597,14.20595 0,10.38835 3.81755,14.41631 13.57036,14.41631 3.18057,0 7.63296,-0.42312 10.60094,-1.69546 l 0,-4.4524 c -3.17982,0.42427 -7.20778,0.63698 -9.75281,0.63698 -4.66568,0 -6.57299,-1.05992 -7.20853,-5.93745 l 11.02608,0 c 5.08788,0 7.20778,-2.96798 7.20778,-7.84551 0,-5.936 -3.39242,-9.32842 -12.29785,-9.32842 z m 0.21271,5.30047 c 4.2398,0 5.51232,1.05998 5.51232,4.02795 0,1.48512 -0.42427,3.17988 -2.54503,3.17988 l -9.32843,0 c 0.21271,-5.72491 1.69546,-7.20783 6.36114,-7.20783"
       inkscape:connector-curvature="0" />
    <path
       id="path3051"
       style="fill:#2056ae;fill-opacity:1;fill-rule:evenodd;stroke:none"
       d="m 200.11573,579.98504 c -8.05522,0 -11.0232,1.69551 -11.0232,7.63297 0,4.45308 1.48293,6.57298 6.3604,8.0559 l 6.99598,1.9095 c 2.54504,0.84808 4.0294,0.84808 4.0294,2.96798 0,2.1199 -1.48436,2.54503 -7.20997,2.54503 -3.60282,0 -7.20783,-0.42485 -9.32842,-0.63698 l 0,0.21213 0,4.66569 c 4.87603,0.84738 9.11583,1.27032 11.02607,1.27032 8.4803,0 12.08531,-1.48292 12.08531,-8.05591 0,-4.87747 -2.1199,-6.57298 -6.57299,-7.8455 l -7.20997,-1.90731 c -2.5429,-0.84813 -3.81541,-0.84813 -3.81541,-2.97016 0,-2.33031 1.27251,-2.33031 5.72347,-2.33031 3.60495,0 6.99737,0 10.39054,0.21041 l 0,-4.87609 c -3.18058,-0.42427 -7.84551,-0.84738 -11.45121,-0.84738"
       inkscape:connector-curvature="0" />
    <path
       id="path3053"
       style="fill:#2056ae;fill-opacity:1;fill-rule:evenodd;stroke:none"
       d="m 222.37972,588.89052 c 3.18058,-2.12209 5.30048,-3.39242 8.05805,-3.39242 3.39241,0 4.6628,2.11991 4.6628,9.11584 0,6.99742 -1.48292,8.48248 -5.51088,8.48248 -2.54503,0 -4.45239,-0.63698 -7.20997,-1.05992 l 0,-13.14598 z m -1.05997,-8.0581 -5.51301,0 0,35.83223 6.57298,0 0,-5.08788 c 0.21272,-1.90736 0,-3.81755 0,-5.72491 2.75758,1.90736 5.93745,2.75544 9.33056,2.75544 6.7834,0 10.38841,-3.39098 10.38841,-13.99336 0,-9.32843 -2.75544,-14.6289 -9.32843,-14.6289 -3.81755,0 -8.48248,2.1199 -11.02538,4.87534"
       inkscape:connector-curvature="0" />
    <path
       id="path3055"
       style="fill:#2056ae;fill-opacity:1;fill-rule:evenodd;stroke:none"
       d="m 115.3053,624.08577 -2.1199,0 0,8.90542 c 0,2.75763 -0.84738,3.81755 -3.18057,3.81755 -2.33249,0 -3.17988,-1.05992 -3.17988,-3.81755 l 0,-8.90542 -1.91018,0 0,8.90542 c 0,4.03015 1.27251,5.72492 5.3026,5.72492 3.60357,0 5.08793,-1.69477 5.08793,-5.72492"
       inkscape:connector-curvature="0" />
    <path
       id="path3057"
       style="fill:#2056ae;fill-opacity:1;fill-rule:evenodd;stroke:none"
       d="m 129.7238,624.08577 -2.1199,0 0,9.9654 c 0,0.84739 0.21271,1.48506 0.21271,2.33244 l -0.42542,0 c -0.21272,-0.84738 -0.63554,-1.48505 -0.84739,-2.1199 l -4.45309,-9.54096 c 0,-0.42427 -0.42542,-0.63698 -0.84738,-0.63698 l -1.91019,0 c -0.42311,0 -0.63484,0.42426 -0.63484,0.84951 l 0,13.35638 1.90736,0 0,-10.1765 c 0,-0.63698 0,-1.27182 0,-2.1199 l 0.21271,0 c 0.21271,0.63554 0.63554,1.48292 0.84738,2.1199 l 4.45309,9.54097 c 0.21271,0.42542 0.42542,0.63553 0.84739,0.63553 l 1.91024,0 c 0.63479,0 0.84738,-0.2104 0.84738,-0.63553"
       inkscape:connector-curvature="0" />
    <path
       id="path3059"
       style="fill:#2056ae;fill-opacity:1;fill-rule:evenodd;stroke:none"
       d="m 133.11621,638.29166 0,-14.20589 2.1206,0 0,14.20589"
       inkscape:connector-curvature="0" />
    <path
       id="path3061"
       style="fill:#2056ae;fill-opacity:1;fill-rule:evenodd;stroke:none"
       d="m 149.23017,624.08577 -2.11991,0 -3.18057,11.23792 c -0.21271,0.42542 -0.21271,0.84738 -0.42542,1.48505 l -0.42196,0 c -0.21271,-0.63767 -0.42542,-1.05992 -0.42542,-1.48505 l -3.17982,-11.23792 -2.12065,0 4.02795,13.78295 c 0.21271,0.21271 0.42542,0.42312 0.84739,0.42312 l 2.12065,0 c 0.21271,0 0.63697,-0.21041 0.63697,-0.42312"
       inkscape:connector-curvature="0" />
    <path
       id="path3063"
       style="fill:#2056ae;fill-opacity:1;fill-rule:evenodd;stroke:none"
       d="m 160.0437,636.5962 -5.7256,0 c -0.84738,0 -1.05998,-0.21271 -1.05998,-1.27251 l 0,-3.60501 5.93745,0 0,-1.69546 -5.93745,0 0,-2.75763 c 0,-1.05992 0.21271,-1.27033 1.05998,-1.27033 l 5.7256,0 0,-1.69696 c -1.90805,-0.21271 -4.02795,-0.21271 -5.93601,-0.21271 -1.90949,0 -2.96947,1.05998 -2.96947,2.54504 l 0,9.32986 c 0,1.48293 1.05998,2.5436 2.96947,2.5436 1.90806,0 4.02796,0 5.93601,-0.21271"
       inkscape:connector-curvature="0" />
    <path
       id="path3065"
       style="fill:#2056ae;fill-opacity:1;fill-rule:evenodd;stroke:none"
       d="m 172.97708,638.29166 -1.27251,-4.45308 c -0.42312,-1.27033 -1.06067,-1.69546 -1.90806,-1.90731 l 0,-0.21271 c 1.90806,-0.2104 2.75763,-1.27038 2.75763,-3.60357 0,-3.17982 -1.48511,-4.0294 -4.66568,-4.0294 -2.33244,0 -3.39242,0 -5.08788,0 l 0,14.20596 2.12059,0 0,-5.72347 2.96729,0 c 0.84813,0 1.48511,0.42311 1.69551,1.48292 l 1.27252,4.24055 2.12059,0 z m -8.05591,-7.63291 0,-4.87608 c 0.84739,0 1.69477,0 2.75544,0 2.1199,0 2.75688,0.42311 2.75688,2.5429 0,1.91018 -0.63698,2.33318 -2.75688,2.33318"
       inkscape:connector-curvature="0" />
    <path
       id="path3067"
       style="fill:#2056ae;fill-opacity:1;fill-rule:evenodd;stroke:none"
       d="m 179.54938,623.87536 c -3.17988,0 -4.6628,0.42312 -4.6628,3.81536 0,2.1199 0.84738,3.39242 2.96803,4.02796 l 2.75544,0.84957 c 1.27252,0.2104 1.6969,0.63554 1.6969,2.1199 0,1.69546 -0.63698,2.12059 -2.75757,2.12059 -1.05998,0 -1.69477,0 -4.2398,-0.21271 l -0.21271,1.69552 c 2.1199,0.21271 3.60495,0.42427 4.45234,0.42427 3.39316,0 4.87822,-0.63479 4.87822,-4.02796 0,-2.1199 -0.63767,-3.39241 -2.96798,-4.02939 l -2.75763,-0.84808 c -1.05992,-0.21271 -1.69546,-0.63479 -1.69546,-2.1199 0,-1.90805 0.84814,-1.90805 2.75544,-1.90805 1.27252,0 2.75763,0 4.02796,0 l 0.21271,-1.48437 c -1.48292,-0.21271 -2.96804,-0.42311 -4.45309,-0.42311"
       inkscape:connector-curvature="0" />
    <path
       id="path3069"
       style="fill:#2056ae;fill-opacity:1;fill-rule:evenodd;stroke:none"
       d="m 187.18304,638.29166 0,-14.20589 2.1199,0 0,14.20589"
       inkscape:connector-curvature="0" />
    <path
       id="path3071"
       style="fill:#2056ae;fill-opacity:1;fill-rule:evenodd;stroke:none"
       d="m 197.78542,624.08577 c -1.90949,0 -3.60501,0 -5.09006,0 l 0,14.20589 c 1.48505,0.21271 3.18057,0.21271 5.09006,0.21271 4.02796,0 5.51301,-1.69545 5.51301,-7.20852 0,-5.51301 -1.48505,-7.20997 -5.51301,-7.20997 z m 0,12.72297 c -1.05998,0 -2.1199,0 -2.96947,0 l 0,-11.02607 c 0.84957,0 1.69696,0 2.96947,0 2.54285,0 3.39098,1.27251 3.39098,5.51306 0,4.02796 -0.84813,5.51301 -3.39098,5.51301"
       inkscape:connector-curvature="0" />
    <path
       id="path3073"
       style="fill:#2056ae;fill-opacity:1;fill-rule:evenodd;stroke:none"
       d="m 213.68684,634.05117 1.27251,4.24049 2.1199,0 -4.45239,-13.56891 c 0,-0.42427 -0.21271,-0.63698 -0.63554,-0.63698 l -2.1199,0 c -0.42542,0 -0.63767,0.21271 -0.84952,0.63698 l -4.45308,13.56891 2.1199,0 1.48505,-4.24049 5.51307,0 z m -0.42542,-1.69552 -4.66281,0 1.69552,-5.51231 0.42427,-1.06067 0.42311,0 c 0.21272,0.42311 0.21272,0.84813 0.42485,1.06067"
       inkscape:connector-curvature="0" />
    <path
       id="path3075"
       style="fill:#2056ae;fill-opacity:1;fill-rule:evenodd;stroke:none"
       d="m 224.28778,624.08577 c -2.12065,0 -3.60357,0 -5.08793,0 l 0,14.20589 c 1.48436,0.21271 2.96728,0.21271 5.08793,0.21271 4.02939,0 5.51232,-1.69545 5.51232,-7.20852 0,-5.51301 -1.48293,-7.20997 -5.51232,-7.20997 z m 0,12.72297 c -1.27038,0 -2.3325,0 -3.18057,0 l 0,-11.02607 c 0.84807,0 1.91019,0 3.18057,0 2.54503,0 3.39242,1.27251 3.39242,5.51306 0,4.02796 -0.84739,5.51301 -3.39242,5.51301"
       inkscape:connector-curvature="0" />
    <path
       id="path3077"
       style="fill:#2056ae;fill-opacity:1;fill-rule:evenodd;stroke:none"
       d="m 241.46315,636.5962 -5.72491,0 c -0.63767,0 -1.05992,-0.21271 -1.05992,-1.27251 l 0,-3.60501 5.93526,0 0,-1.69546 -5.93526,0 0,-2.75763 c 0,-1.05992 0.42254,-1.27033 1.05992,-1.27033 l 5.72491,0 0.21041,-1.69696 c -1.90737,-0.21271 -4.24055,-0.21271 -6.14786,-0.21271 -1.69552,0 -2.96803,1.05992 -2.96803,2.54504 l 0,9.32986 c 0,1.48293 1.05998,2.5436 2.96803,2.5436 1.90731,0 4.24049,0 6.14786,-0.21271"
       inkscape:connector-curvature="0" />
    <path
       id="path3079"
       style="fill:#2056ae;fill-opacity:1;fill-rule:evenodd;stroke:none"
       d="m 110.85291,654.19452 -4.24049,0 c -0.42543,0 -0.63485,-0.42427 -0.63485,-1.05992 l 0,-2.54504 4.2398,0 0,-1.27251 -4.2398,0 0,-1.90736 c 0,-0.84808 0.20983,-1.06068 0.63485,-1.06068 l 4.24049,0 0,-1.05992 c -1.48506,-0.21271 -2.96798,-0.21271 -4.45309,-0.21271 -1.27252,0 -1.9073,0.84808 -1.9073,1.90806 l 0,6.57298 c 0,1.05993 0.63478,1.9095 1.9073,1.9095 1.48511,0 2.96803,0 4.45309,-0.21271"
       inkscape:connector-curvature="0" />
    <path
       id="path3081"
       style="fill:#2056ae;fill-opacity:1;fill-rule:evenodd;stroke:none"
       d="m 115.73044,645.0765 c -2.3325,0 -3.39242,0.21271 -3.39242,2.54503 0,1.69552 0.42196,2.54503 1.9073,2.96803 l 2.12065,0.63767 c 0.84739,0.20983 1.27177,0.42254 1.27177,1.48223 0,1.27252 -0.42427,1.48506 -1.9073,1.48506 -0.84958,0 -1.27252,0 -3.18202,0 l 0,1.05998 c 1.27252,0.21271 2.54504,0.21271 3.18202,0.21271 2.3303,0 3.39022,-0.42427 3.39022,-2.75763 0,-1.48217 -0.42196,-2.54284 -2.1199,-2.96728 l -1.9073,-0.42543 c -0.84814,-0.21271 -1.27252,-0.63484 -1.27252,-1.69551 0,-1.27252 0.42427,-1.27252 1.9095,-1.27252 1.05992,0 2.1199,0 2.96797,0 l 0,-1.05992 c -1.06067,-0.21271 -2.12059,-0.21271 -2.96797,-0.21271"
       inkscape:connector-curvature="0" />
    <path
       id="path3083"
       style="fill:#2056ae;fill-opacity:1;fill-rule:evenodd;stroke:none"
       d="m 128.02684,646.56161 0,-1.48511 -7.84406,0 0,1.48511 3.18057,0 0,8.69289 1.48292,0 0,-8.69289"
       inkscape:connector-curvature="0" />
    <path
       id="path3085"
       style="fill:#2056ae;fill-opacity:1;fill-rule:evenodd;stroke:none"
       d="m 134.17688,652.28721 1.05993,2.96729 1.48292,0 -3.18057,-9.75287 c 0,-0.21271 -0.21041,-0.42542 -0.63479,-0.42542 l -1.48511,0 c -0.21272,0 -0.42312,0.21271 -0.42312,0.42542 l -3.17988,9.75287 1.48223,0 0.84808,-2.96729 4.03014,0 z m -0.42542,-1.27251 -3.18057,0 1.27252,-3.81755 0.21271,-0.84814 0.42311,0 c 0,0.21271 0.21272,0.42485 0.21272,0.84814"
       inkscape:connector-curvature="0" />
    <path
       id="path3087"
       style="fill:#2056ae;fill-opacity:1;fill-rule:evenodd;stroke:none"
       d="m 141.80979,645.0765 c -1.48505,0 -2.54503,0 -3.81755,0 l 0,10.178 c 1.27252,0.21271 2.3325,0.21271 3.81755,0.21271 2.96729,0 4.02796,-1.27252 4.02796,-5.30047 0,-3.81755 -1.06067,-5.09007 -4.02796,-5.09007 z m 0,9.11802 c -0.84807,0 -1.69765,0 -2.33243,0 l 0,-7.84551 c 0.84738,0 1.48436,0 2.33243,0 1.90737,0 2.3325,0.84814 2.3325,3.81755 0,2.96804 -0.42542,4.02796 -2.3325,4.02796"
       inkscape:connector-curvature="0" />
    <path
       id="path3089"
       style="fill:#2056ae;fill-opacity:1;fill-rule:evenodd;stroke:none"
       d="m 155.37802,645.0765 -1.48292,0 0,6.36045 c 0,2.12059 -0.63698,2.75757 -2.33244,2.75757 -1.69696,0 -2.33249,-0.63698 -2.33249,-2.75757 l 0,-6.36045 -1.48506,0 0,6.36045 c 0,2.97016 1.05992,4.03009 3.81755,4.03009 2.75544,0 3.81536,-1.05993 3.81536,-4.03009"
       inkscape:connector-curvature="0" />
    <path
       id="path3091"
       style="fill:#2056ae;fill-opacity:1;fill-rule:evenodd;stroke:none"
       d="m 163.01099,652.28721 1.05992,2.96729 1.48511,0 -3.17988,-9.75287 c -0.21271,-0.21271 -0.42542,-0.42542 -0.63554,-0.42542 l -1.48505,0 c -0.21214,0 -0.42427,0.21271 -0.63698,0.42542 l -3.18057,9.75287 1.48505,0 1.05998,-2.96729 4.02796,0 z m -0.42254,-1.27251 -3.18057,0 1.05992,-3.81755 0.42311,-0.84814 0.21271,0 c 0.21271,0.21271 0.21271,0.42485 0.42427,0.84814"
       inkscape:connector-curvature="0" />
    <path
       id="path3093"
       style="fill:#2056ae;fill-opacity:1;fill-rule:evenodd;stroke:none"
       d="m 168.31359,645.0765 -1.48505,0 0,8.27064 c 0,1.27038 0.63553,2.1199 2.12059,2.1199 1.48436,0 2.75544,-0.21272 4.02795,-0.21272 l 0,-1.05992 -3.60351,0 c -0.84957,0 -1.05998,-0.42426 -1.05998,-1.05998"
       inkscape:connector-curvature="0" />
    <path
       id="path3095"
       style="fill:#2056ae;fill-opacity:1;fill-rule:evenodd;stroke:none"
       d="m 182.94249,645.0765 c -1.69546,0 -2.54503,0 -3.60496,0 l 0,10.178 1.48437,0 0,-3.81755 c 0.63767,0 1.27251,0 2.12059,0 2.33249,0 3.17988,-0.63485 3.17988,-3.17988 0,-2.54284 -0.84739,-3.18057 -3.17988,-3.18057 z m -2.12059,5.09006 0,-3.81755 c 0.42542,0 1.27251,0 1.90805,0 1.48506,0 1.9095,0.42485 1.9095,1.90806 0,1.48511 -0.42427,1.90949 -1.9095,1.90949"
       inkscape:connector-curvature="0" />
    <path
       id="path3097"
       style="fill:#2056ae;fill-opacity:1;fill-rule:evenodd;stroke:none"
       d="m 192.90789,652.28721 1.05998,2.96729 1.48506,0 -3.18057,-9.75287 c -0.21156,-0.21271 -0.42427,-0.42542 -0.63698,-0.42542 l -1.48292,0 c -0.21272,0 -0.42543,0.21271 -0.63698,0.42542 l -3.18057,9.75287 1.69765,0 0.84738,-2.96729 4.02795,0 z m -0.42484,-1.27251 -3.17982,0 1.05992,-3.81755 0.42484,-0.84814 0.21214,0 c 0.21271,0.21271 0.21271,0.42485 0.42311,0.84814"
       inkscape:connector-curvature="0" />
    <path
       id="path3099"
       style="fill:#2056ae;fill-opacity:1;fill-rule:evenodd;stroke:none"
       d="m 204.14581,645.0765 -1.48505,0 0,6.36045 c 0,2.12059 -0.63485,2.75757 -2.33249,2.75757 -1.69477,0 -2.33244,-0.63698 -2.33244,-2.75757 l 0,-6.36045 -1.48292,0 0,6.36045 c 0,2.97016 1.05992,4.03009 3.81536,4.03009 2.75762,0 3.81754,-1.05993 3.81754,-4.03009"
       inkscape:connector-curvature="0" />
    <path
       id="path3101"
       style="fill:#2056ae;fill-opacity:1;fill-rule:evenodd;stroke:none"
       d="m 207.96123,645.0765 -1.48292,0 0,8.27064 c 0,1.27038 0.63554,2.1199 2.12059,2.1199 1.27252,0 2.75544,-0.21272 4.02796,-0.21272 l -0.21271,-1.05992 -3.60283,0 c -0.63767,0 -0.85026,-0.42426 -0.85026,-1.05998"
       inkscape:connector-curvature="0" />
    <path
       id="path3103"
       style="fill:#2056ae;fill-opacity:1;fill-rule:evenodd;stroke:none"
       d="m 214.11122,655.2545 0,-10.178 1.48292,0 0,10.178"
       inkscape:connector-curvature="0" />
    <path
       id="path3105"
       style="fill:#2056ae;fill-opacity:1;fill-rule:evenodd;stroke:none"
       d="m 220.89461,644.86465 c -2.3303,0 -3.17982,0.42427 -3.17982,2.75688 0,1.69552 0.42427,2.54503 1.9095,2.96803 l 2.12059,0.63767 c 0.84738,0.20983 1.27252,0.42254 1.27252,1.48223 0,1.27252 -0.63768,1.48506 -2.12279,1.48506 -0.63479,0 -1.27032,0 -2.96728,0 l -0.21271,1.05998 c 1.48511,0.21271 2.54503,0.21271 3.17988,0.21271 2.54503,0 3.60495,-0.42427 3.60495,-2.75763 0,-1.48217 -0.63479,-2.54284 -2.1199,-2.96728 l -2.1199,-0.42543 c -0.84813,-0.21271 -1.05998,-0.63484 -1.05998,-1.69551 0,-1.27252 0.42427,-1.27252 1.90736,-1.27252 0.84808,0 1.91019,0 2.75758,0 l 0.21271,-1.05992 c -1.05992,-0.21271 -2.12204,-0.42427 -3.18271,-0.42427"
       inkscape:connector-curvature="0" />
    <path
       id="path3107"
       style="fill:#2056ae;fill-opacity:1;fill-rule:evenodd;stroke:none"
       d="m 233.4058,646.56161 0,-1.48511 -7.8455,0 0,1.48511 3.17982,0 0,8.69289 1.48511,0 0,-8.69289"
       inkscape:connector-curvature="0" />
    <path
       id="path3109"
       style="fill:#2056ae;fill-opacity:1;fill-rule:evenodd;stroke:none"
       d="m 239.55366,652.28721 0.84951,2.96729 1.48292,0 -3.18057,-9.75287 c 0,-0.21271 -0.21156,-0.42542 -0.42196,-0.42542 l -1.48505,0 c -0.21272,0 -0.42485,0.21271 -0.63554,0.42542 l -3.18201,9.75287 1.48505,0 1.05998,-2.96729 4.02795,0 z m -0.42312,-1.27251 -3.17988,0 1.05998,-3.81755 0.21156,-0.84814 0.42311,0 c 0.21271,0.21271 0.21271,0.42485 0.21271,0.84814"
       inkscape:connector-curvature="0" />
    <path
       id="path3111"
       style="fill:#a6e2f9;fill-opacity:1;fill-rule:evenodd;stroke:none"
       d="m 565.40507,522.14246 c 15.2551,8.89897 24.15263,19.27942 32.62716,30.29684 0.63553,-8.89966 0.84813,-17.58465 0.21271,-26.69402 -10.80484,-2.33031 -21.82227,-3.81536 -32.83969,-3.60282 z m -21.82082,39.83135 c 17.5839,-4.02576 34.95602,-5.93382 52.33027,-6.35607 -9.11013,-12.92335 -20.12756,-23.94078 -33.89823,-31.99236 -6.99167,12.92479 -13.34849,25.42295 -18.43204,38.34843 z m 0.63554,5.08361 c 14.19368,13.98327 26.90587,29.44947 38.13371,45.76374 6.35681,-14.83135 12.71288,-32.41531 14.83134,-52.33027 -18.00903,0.21041 -36.01669,2.75331 -52.96505,6.56653 z m -19.49202,63.1351 c 18.0091,-0.84519 35.593,-4.66061 52.75471,-12.71075 -10.80489,-16.94912 -23.09339,-32.8397 -37.2892,-47.03337 -7.83905,21.39788 -12.07522,38.98178 -15.46551,59.74412 z m -40.46689,-40.2543 c 9.53451,16.95125 21.60973,28.39168 34.11008,38.13659 3.81322,-19.06757 8.05158,-38.34699 16.10173,-58.4738 -16.52468,4.87102 -33.26339,11.22784 -50.21181,20.33721 z m -23.30593,8.05159 c 5.72128,-4.02582 11.44256,-7.41392 17.58684,-10.80489 -4.02651,-7.83899 -7.6272,-16.10098 -10.38264,-26.05849 -5.08355,13.98327 -6.56647,25.84595 -7.2042,36.86338 z m 23.51778,-13.98327 c 16.10173,-8.47459 32.6279,-14.61812 49.57701,-19.49202 -9.9575,-9.32191 -20.34009,-18.0069 -31.99236,-26.05849 -11.01524,18.43204 -14.61881,32.83975 -17.58465,45.55051 z m -13.77068,-26.27109 c 8.26199,-7.2042 18.43204,-13.55814 27.5421,-18.64457 -8.47453,13.34842 -13.98327,29.8746 -17.58465,44.91566 -3.81323,-7.41392 -7.2042,-17.37137 -9.95745,-26.27109 z m 34.53377,-22.03266 c 11.43968,7.4146 22.24526,16.52398 32.62715,25.42364 5.50869,-12.71289 11.86551,-26.06137 19.06757,-38.55953 -18.00765,1.05848 -35.59374,6.14422 -51.69472,13.13589 z m 0.84738,-3.60358 c 17.7965,-7.83899 31.35533,-11.22783 49.99921,-12.71075 -11.22783,-5.29615 -20.54974,-7.83899 -32.83756,-8.89897 -7.41674,7.2042 -11.65296,12.92548 -17.16165,21.60972 z m -16.94911,-6.14353 c 4.02576,2.33031 8.47452,4.66136 12.71288,7.2042 6.14354,-9.5345 10.5923,-15.67873 17.15952,-22.24526 -11.86337,3.60069 -19.48982,7.20132 -29.8724,15.04106 z m -17.58396,26.90662 c 8.47383,-6.56722 16.94842,-12.2885 26.48148,-16.94911 -3.60138,-2.54146 -7.20206,-5.0843 -11.44042,-7.41461 -7.20202,8.68713 -11.44038,16.31358 -15.04106,24.36372"
       inkscape:connector-curvature="0" />
  </g>
</svg>
