<?xml version="1.0" encoding="UTF-8" standalone="no"?>
<!-- Created with Inkscape (http://www.inkscape.org/) -->

<svg
   xmlns:dc="http://purl.org/dc/elements/1.1/"
   xmlns:cc="http://creativecommons.org/ns#"
   xmlns:rdf="http://www.w3.org/1999/02/22-rdf-syntax-ns#"
   xmlns:svg="http://www.w3.org/2000/svg"
   xmlns="http://www.w3.org/2000/svg"
   xmlns:sodipodi="http://sodipodi.sourceforge.net/DTD/sodipodi-0.dtd"
   xmlns:inkscape="http://www.inkscape.org/namespaces/inkscape"
   width="510.638"
   height="680.99237"
   id="svg3515"
   version="1.1"
   inkscape:version="0.48.4 r9939"
   sodipodi:docname="unesp-40-anos.svg">
  <defs
     id="defs3517" />
  <sodipodi:namedview
     id="base"
     pagecolor="#ffffff"
     bordercolor="#666666"
     borderopacity="1.0"
     inkscape:pageopacity="0.0"
     inkscape:pageshadow="2"
     inkscape:zoom="0.73168879"
     inkscape:cx="267.76509"
     inkscape:cy="299.53334"
     inkscape:document-units="px"
     inkscape:current-layer="layer1"
     showgrid="false"
     fit-margin-top="0"
     fit-margin-left="0"
     fit-margin-right="0"
     fit-margin-bottom="0"
     inkscape:window-width="1680"
     inkscape:window-height="987"
     inkscape:window-x="-8"
     inkscape:window-y="-8"
     inkscape:window-maximized="1" />
  <metadata
     id="metadata3520">
    <rdf:RDF>
      <cc:Work
         rdf:about="">
        <dc:format>image/svg+xml</dc:format>
        <dc:type
           rdf:resource="http://purl.org/dc/dcmitype/StillImage" />
        <dc:title></dc:title>
      </cc:Work>
    </rdf:RDF>
  </metadata>
  <g
     inkscape:label="Layer 1"
     inkscape:groupmode="layer"
     id="layer1"
     transform="translate(-104.27992,-144.72313)">
    <path
       id="path2995"
       style="fill:#b3db18;fill-opacity:1;fill-rule:evenodd;stroke:none"
       d="m 274.42176,825.71552 0,-170.24848 170.24843,0 0,170.24848"
       inkscape:connector-curvature="0" />
    <path
       id="path2997"
       style="fill:#059e9a;fill-opacity:1;fill-rule:evenodd;stroke:none"
       d="m 274.42176,825.71552 170.24843,0 0,-34.05174 -68.10053,0 0,-102.1472 68.10053,0 0,-34.04954 -170.24843,0 0,170.24848 z m 34.04955,-34.05174 0,-102.1472 34.0488,0 0,102.1472"
       inkscape:connector-curvature="0" />
    <path
       id="path2999"
       style="fill:#712090;fill-opacity:1;fill-rule:evenodd;stroke:none"
       d="m 274.42176,655.46704 0,-170.24774 170.24843,0 0,170.24774"
       inkscape:connector-curvature="0" />
    <path
       id="path3001"
       style="fill:#f68712;fill-opacity:1;fill-rule:evenodd;stroke:none"
       d="m 274.42176,655.46704 170.24843,0 0,-34.0488 -129.7873,0 129.7873,-88.59339 0,-47.60555 -170.24843,0 0,34.04885 129.7873,0 -129.7873,88.48744"
       inkscape:connector-curvature="0" />
    <path
       id="path3003"
       style="fill:#2056ae;fill-opacity:1;fill-rule:evenodd;stroke:none"
       d="m 274.42176,485.2193 0,-170.24843 170.24843,0 0,170.24843"
       inkscape:connector-curvature="0" />
    <path
       id="path3005"
       style="fill:#a6e2f9;fill-opacity:1;fill-rule:evenodd;stroke:none"
       d="m 274.42176,485.2193 170.24843,0 0,-170.24843 -170.24843,0 0,170.24843 z m 34.04955,-34.04955 0,-102.14933 102.1472,0 0,102.14933"
       inkscape:connector-curvature="0" />
    <path
       id="path3007"
       style="fill:#f68712;fill-opacity:1;fill-rule:evenodd;stroke:none"
       d="m 274.63217,314.97087 0,-170.24774 170.24843,0 0,170.24774"
       inkscape:connector-curvature="0" />
    <path
       id="path3009"
       style="fill:#fbc707;fill-opacity:1;fill-rule:evenodd;stroke:none"
       d="m 104.27992,485.2193 0,-170.24843 170.35225,0 0,170.24843"
       inkscape:connector-curvature="0" />
    <path
       id="path3011"
       style="fill:#2056ae;fill-opacity:1;fill-rule:evenodd;stroke:none"
       d="m 104.27992,314.97087 0,102.15008 136.3027,0 0,68.09835 34.04955,0 0,-170.24843 -34.04955,0 0,68.10053 -102.14939,0 0,-68.10053"
       inkscape:connector-curvature="0" />
    <path
       id="path3013"
       style="fill:#712090;fill-opacity:1;fill-rule:evenodd;stroke:none"
       d="m 274.63217,314.97087 102.14789,0 0,-136.19675 34.04886,0 0,136.19675 34.05168,0 0,-170.24774 -102.15009,0 0,136.19888 -34.04879,0 0,-136.19888 -34.04955,0"
       inkscape:connector-curvature="0" />
    <path
       id="path3015"
       style="fill:#2056ae;fill-opacity:1;fill-rule:evenodd;stroke:none"
       d="m 444.67019,655.46704 0,-170.24774 170.24561,0 0,170.24774"
       inkscape:connector-curvature="0" />
    <path
       id="path3111"
       style="fill:#a6e2f9;fill-opacity:1;fill-rule:evenodd;stroke:none"
       d="m 565.40507,522.14246 c 15.2551,8.89897 24.15263,19.27942 32.62716,30.29684 0.63553,-8.89966 0.84813,-17.58465 0.21271,-26.69402 -10.80484,-2.33031 -21.82227,-3.81536 -32.83969,-3.60282 z m -21.82082,39.83135 c 17.5839,-4.02576 34.95602,-5.93382 52.33027,-6.35607 -9.11013,-12.92335 -20.12756,-23.94078 -33.89823,-31.99236 -6.99167,12.92479 -13.34849,25.42295 -18.43204,38.34843 z m 0.63554,5.08361 c 14.19368,13.98327 26.90587,29.44947 38.13371,45.76374 6.35681,-14.83135 12.71288,-32.41531 14.83134,-52.33027 -18.00903,0.21041 -36.01669,2.75331 -52.96505,6.56653 z m -19.49202,63.1351 c 18.0091,-0.84519 35.593,-4.66061 52.75471,-12.71075 -10.80489,-16.94912 -23.09339,-32.8397 -37.2892,-47.03337 -7.83905,21.39788 -12.07522,38.98178 -15.46551,59.74412 z m -40.46689,-40.2543 c 9.53451,16.95125 21.60973,28.39168 34.11008,38.13659 3.81322,-19.06757 8.05158,-38.34699 16.10173,-58.4738 -16.52468,4.87102 -33.26339,11.22784 -50.21181,20.33721 z m -23.30593,8.05159 c 5.72128,-4.02582 11.44256,-7.41392 17.58684,-10.80489 -4.02651,-7.83899 -7.6272,-16.10098 -10.38264,-26.05849 -5.08355,13.98327 -6.56647,25.84595 -7.2042,36.86338 z m 23.51778,-13.98327 c 16.10173,-8.47459 32.6279,-14.61812 49.57701,-19.49202 -9.9575,-9.32191 -20.34009,-18.0069 -31.99236,-26.05849 -11.01524,18.43204 -14.61881,32.83975 -17.58465,45.55051 z m -13.77068,-26.27109 c 8.26199,-7.2042 18.43204,-13.55814 27.5421,-18.64457 -8.47453,13.34842 -13.98327,29.8746 -17.58465,44.91566 -3.81323,-7.41392 -7.2042,-17.37137 -9.95745,-26.27109 z m 34.53377,-22.03266 c 11.43968,7.4146 22.24526,16.52398 32.62715,25.42364 5.50869,-12.71289 11.86551,-26.06137 19.06757,-38.55953 -18.00765,1.05848 -35.59374,6.14422 -51.69472,13.13589 z m 0.84738,-3.60358 c 17.7965,-7.83899 31.35533,-11.22783 49.99921,-12.71075 -11.22783,-5.29615 -20.54974,-7.83899 -32.83756,-8.89897 -7.41674,7.2042 -11.65296,12.92548 -17.16165,21.60972 z m -16.94911,-6.14353 c 4.02576,2.33031 8.47452,4.66136 12.71288,7.2042 6.14354,-9.5345 10.5923,-15.67873 17.15952,-22.24526 -11.86337,3.60069 -19.48982,7.20132 -29.8724,15.04106 z m -17.58396,26.90662 c 8.47383,-6.56722 16.94842,-12.2885 26.48148,-16.94911 -3.60138,-2.54146 -7.20206,-5.0843 -11.44042,-7.41461 -7.20202,8.68713 -11.44038,16.31358 -15.04106,24.36372"
       inkscape:connector-curvature="0" />
  </g>
</svg>
